<svg xmlns="http://www.w3.org/2000/svg" viewBox="0 0 400 300" width="400" height="300">
  <defs>
    <linearGradient id="bg" x1="0%" y1="0%" x2="100%" y2="100%">
      <stop offset="0%" style="stop-color:#00695c"/>
      <stop offset="100%" style="stop-color:#26a69a"/>
    </linearGradient>
  </defs>
  <rect width="400" height="300" fill="url(#bg)"/>
  <!-- Shoulders/body -->
  <ellipse cx="200" cy="280" rx="80" ry="50" fill="#e0f2f1" opacity="0.25"/>
  <!-- Neck -->
  <rect x="185" y="200" width="30" height="35" rx="8" fill="#e0f2f1" opacity="0.3"/>
  <!-- Head -->
  <circle cx="200" cy="160" r="45" fill="#e0f2f1" opacity="0.35"/>
  <!-- Hair (short, styled) -->
  <path d="M158,150 Q155,115 200,108 Q245,115 242,150" fill="#e0f2f1" opacity="0.2"/>
  <!-- Ears hint -->
  <ellipse cx="153" cy="162" rx="6" ry="10" fill="#e0f2f1" opacity="0.15"/>
  <ellipse cx="247" cy="162" rx="6" ry="10" fill="#e0f2f1" opacity="0.15"/>
  <!-- Shoulders -->
  <path d="M140,240 Q145,215 185,210 L215,210 Q255,215 260,240" fill="#e0f2f1" opacity="0.22"/>
  <!-- Shirt collar -->
  <path d="M178,210 L190,230 L200,220 L210,230 L222,210" stroke="#e0f2f1" stroke-width="1.5" fill="none" opacity="0.2"/>
  <!-- Name tag area -->
  <rect x="160" y="250" width="80" height="25" rx="4" fill="#e0f2f1" opacity="0.08"/>
</svg>