<svg xmlns="http://www.w3.org/2000/svg" viewBox="0 0 400 300" width="400" height="300">
  <defs>
    <linearGradient id="bg" x1="0%" y1="0%" x2="100%" y2="100%">
      <stop offset="0%" style="stop-color:#6a1b9a"/>
      <stop offset="100%" style="stop-color:#ab47bc"/>
    </linearGradient>
  </defs>
  <rect width="400" height="300" fill="url(#bg)"/>
  <!-- Shoulders/body -->
  <ellipse cx="200" cy="280" rx="80" ry="50" fill="#f3e5f5" opacity="0.25"/>
  <!-- Neck -->
  <rect x="185" y="200" width="30" height="35" rx="8" fill="#f3e5f5" opacity="0.3"/>
  <!-- Head -->
  <circle cx="200" cy="160" r="45" fill="#f3e5f5" opacity="0.35"/>
  <!-- Hair (longer, professional) -->
  <path d="M155,155 Q150,110 200,105 Q250,110 245,155 L245,180 Q240,170 230,168 L230,145" fill="#f3e5f5" opacity="0.2"/>
  <path d="M155,155 L155,180 Q160,170 170,168 L170,145" fill="#f3e5f5" opacity="0.2"/>
  <!-- Shoulders/blouse -->
  <path d="M140,240 Q145,215 185,210 L215,210 Q255,215 260,240" fill="#f3e5f5" opacity="0.22"/>
  <!-- Necklace detail -->
  <path d="M175,212 Q200,225 225,212" stroke="#f3e5f5" stroke-width="1.5" fill="none" opacity="0.2"/>
  <!-- Name tag area -->
  <rect x="160" y="250" width="80" height="25" rx="4" fill="#f3e5f5" opacity="0.08"/>
</svg>